<mxfile host="app.diagrams.net" modified="2024-03-14T22:39:56.529Z" agent="Mozilla/5.0 (X11; Linux x86_64; rv:109.0) Gecko/20100101 Firefox/115.0" etag="T618Vt1NFrmiKccdsTl7" version="24.0.5" type="device">
  <diagram name="Page-1" id="Z4BLQaRfTQ9cAVS50Z4p">
    <mxGraphModel dx="1834" dy="1180" grid="0" gridSize="10" guides="1" tooltips="1" connect="1" arrows="1" fold="1" page="0" pageScale="1" pageWidth="850" pageHeight="1100" math="0" shadow="0">
      <root>
        <mxCell id="0" />
        <mxCell id="1" parent="0" />
        <mxCell id="2WxxFKMK4tvinjYQZOvK-3" value="&lt;p style=&quot;margin:0px;margin-top:4px;text-align:center;&quot;&gt;&lt;i&gt;&amp;lt;&amp;lt;Interface&amp;gt;&amp;gt;&lt;/i&gt;&lt;br&gt;&lt;b&gt;PaymentMethod&lt;/b&gt;&lt;/p&gt;&lt;hr style=&quot;border-style:solid;&quot; size=&quot;1&quot;&gt;&lt;p style=&quot;margin:0px;margin-left:4px;&quot;&gt;+ pay(fee: double): boolean&lt;br&gt;&lt;/p&gt;" style="verticalAlign=top;align=left;overflow=fill;html=1;whiteSpace=wrap;" vertex="1" parent="1">
          <mxGeometry x="-31" y="-91" width="190" height="74" as="geometry" />
        </mxCell>
        <mxCell id="2WxxFKMK4tvinjYQZOvK-4" value="CashPayment" style="swimlane;fontStyle=1;align=center;verticalAlign=top;childLayout=stackLayout;horizontal=1;startSize=26;horizontalStack=0;resizeParent=1;resizeParentMax=0;resizeLast=0;collapsible=1;marginBottom=0;whiteSpace=wrap;html=1;" vertex="1" parent="1">
          <mxGeometry x="-261" y="75" width="216" height="86" as="geometry" />
        </mxCell>
        <mxCell id="2WxxFKMK4tvinjYQZOvK-5" value="- availableAmount: double" style="text;strokeColor=none;fillColor=none;align=left;verticalAlign=top;spacingLeft=4;spacingRight=4;overflow=hidden;rotatable=0;points=[[0,0.5],[1,0.5]];portConstraint=eastwest;whiteSpace=wrap;html=1;" vertex="1" parent="2WxxFKMK4tvinjYQZOvK-4">
          <mxGeometry y="26" width="216" height="26" as="geometry" />
        </mxCell>
        <mxCell id="2WxxFKMK4tvinjYQZOvK-6" value="" style="line;strokeWidth=1;fillColor=none;align=left;verticalAlign=middle;spacingTop=-1;spacingLeft=3;spacingRight=3;rotatable=0;labelPosition=right;points=[];portConstraint=eastwest;strokeColor=inherit;" vertex="1" parent="2WxxFKMK4tvinjYQZOvK-4">
          <mxGeometry y="52" width="216" height="8" as="geometry" />
        </mxCell>
        <mxCell id="2WxxFKMK4tvinjYQZOvK-7" value="+ pay(fee: double, tickets: int): boolean" style="text;strokeColor=none;fillColor=none;align=left;verticalAlign=top;spacingLeft=4;spacingRight=4;overflow=hidden;rotatable=0;points=[[0,0.5],[1,0.5]];portConstraint=eastwest;whiteSpace=wrap;html=1;" vertex="1" parent="2WxxFKMK4tvinjYQZOvK-4">
          <mxGeometry y="60" width="216" height="26" as="geometry" />
        </mxCell>
        <mxCell id="2WxxFKMK4tvinjYQZOvK-8" value="CardPayment" style="swimlane;fontStyle=1;align=center;verticalAlign=top;childLayout=stackLayout;horizontal=1;startSize=26;horizontalStack=0;resizeParent=1;resizeParentMax=0;resizeLast=0;collapsible=1;marginBottom=0;whiteSpace=wrap;html=1;" vertex="1" parent="1">
          <mxGeometry x="118" y="75" width="218" height="86" as="geometry" />
        </mxCell>
        <mxCell id="2WxxFKMK4tvinjYQZOvK-9" value="- bankAccount: BankAccount" style="text;strokeColor=none;fillColor=none;align=left;verticalAlign=top;spacingLeft=4;spacingRight=4;overflow=hidden;rotatable=0;points=[[0,0.5],[1,0.5]];portConstraint=eastwest;whiteSpace=wrap;html=1;" vertex="1" parent="2WxxFKMK4tvinjYQZOvK-8">
          <mxGeometry y="26" width="218" height="26" as="geometry" />
        </mxCell>
        <mxCell id="2WxxFKMK4tvinjYQZOvK-10" value="" style="line;strokeWidth=1;fillColor=none;align=left;verticalAlign=middle;spacingTop=-1;spacingLeft=3;spacingRight=3;rotatable=0;labelPosition=right;points=[];portConstraint=eastwest;strokeColor=inherit;" vertex="1" parent="2WxxFKMK4tvinjYQZOvK-8">
          <mxGeometry y="52" width="218" height="8" as="geometry" />
        </mxCell>
        <mxCell id="2WxxFKMK4tvinjYQZOvK-11" value="+ pay(fee: double, tickets: int): boolean" style="text;strokeColor=none;fillColor=none;align=left;verticalAlign=top;spacingLeft=4;spacingRight=4;overflow=hidden;rotatable=0;points=[[0,0.5],[1,0.5]];portConstraint=eastwest;whiteSpace=wrap;html=1;" vertex="1" parent="2WxxFKMK4tvinjYQZOvK-8">
          <mxGeometry y="60" width="218" height="26" as="geometry" />
        </mxCell>
        <mxCell id="2WxxFKMK4tvinjYQZOvK-15" value="" style="endArrow=block;dashed=1;endFill=0;endSize=12;html=1;rounded=0;fontSize=12;curved=1;exitX=0.5;exitY=0;exitDx=0;exitDy=0;entryX=0.25;entryY=1;entryDx=0;entryDy=0;" edge="1" parent="1" source="2WxxFKMK4tvinjYQZOvK-4" target="2WxxFKMK4tvinjYQZOvK-3">
          <mxGeometry width="160" relative="1" as="geometry">
            <mxPoint x="120" y="200" as="sourcePoint" />
            <mxPoint x="280" y="200" as="targetPoint" />
          </mxGeometry>
        </mxCell>
        <mxCell id="2WxxFKMK4tvinjYQZOvK-17" value="" style="endArrow=block;dashed=1;endFill=0;endSize=12;html=1;rounded=0;fontSize=12;curved=1;exitX=0.25;exitY=0;exitDx=0;exitDy=0;entryX=0.75;entryY=1;entryDx=0;entryDy=0;" edge="1" parent="1" source="2WxxFKMK4tvinjYQZOvK-8" target="2WxxFKMK4tvinjYQZOvK-3">
          <mxGeometry width="160" relative="1" as="geometry">
            <mxPoint x="121" y="200" as="sourcePoint" />
            <mxPoint x="281" y="200" as="targetPoint" />
          </mxGeometry>
        </mxCell>
        <mxCell id="2WxxFKMK4tvinjYQZOvK-18" value="BankAccount" style="swimlane;fontStyle=1;align=center;verticalAlign=top;childLayout=stackLayout;horizontal=1;startSize=26;horizontalStack=0;resizeParent=1;resizeParentMax=0;resizeLast=0;collapsible=1;marginBottom=0;whiteSpace=wrap;html=1;" vertex="1" parent="1">
          <mxGeometry x="451" y="75" width="236" height="204" as="geometry" />
        </mxCell>
        <mxCell id="2WxxFKMK4tvinjYQZOvK-19" value="&lt;div&gt;- availableAmount: double&lt;/div&gt;&lt;div&gt;&lt;br&gt;&lt;/div&gt;&lt;div&gt;- cardNumber: String&lt;/div&gt;&lt;div&gt;&lt;br&gt;&lt;/div&gt;&lt;div&gt;- expirationDate: Date&lt;/div&gt;&lt;div&gt;&lt;br&gt;&lt;/div&gt;&lt;div&gt;- cvvCode: int&lt;/div&gt;&lt;div&gt;&lt;br&gt;&lt;/div&gt;&lt;div&gt;- userName: String&lt;br&gt;&lt;/div&gt;" style="text;strokeColor=none;fillColor=none;align=left;verticalAlign=top;spacingLeft=4;spacingRight=4;overflow=hidden;rotatable=0;points=[[0,0.5],[1,0.5]];portConstraint=eastwest;whiteSpace=wrap;html=1;" vertex="1" parent="2WxxFKMK4tvinjYQZOvK-18">
          <mxGeometry y="26" width="236" height="144" as="geometry" />
        </mxCell>
        <mxCell id="2WxxFKMK4tvinjYQZOvK-20" value="" style="line;strokeWidth=1;fillColor=none;align=left;verticalAlign=middle;spacingTop=-1;spacingLeft=3;spacingRight=3;rotatable=0;labelPosition=right;points=[];portConstraint=eastwest;strokeColor=inherit;" vertex="1" parent="2WxxFKMK4tvinjYQZOvK-18">
          <mxGeometry y="170" width="236" height="8" as="geometry" />
        </mxCell>
        <mxCell id="2WxxFKMK4tvinjYQZOvK-21" value="+ updateAmount(value: double): boolean" style="text;strokeColor=none;fillColor=none;align=left;verticalAlign=top;spacingLeft=4;spacingRight=4;overflow=hidden;rotatable=0;points=[[0,0.5],[1,0.5]];portConstraint=eastwest;whiteSpace=wrap;html=1;" vertex="1" parent="2WxxFKMK4tvinjYQZOvK-18">
          <mxGeometry y="178" width="236" height="26" as="geometry" />
        </mxCell>
        <mxCell id="2WxxFKMK4tvinjYQZOvK-22" value="" style="endArrow=diamondThin;endFill=0;endSize=24;html=1;rounded=0;fontSize=12;curved=1;exitX=-0.004;exitY=0.097;exitDx=0;exitDy=0;exitPerimeter=0;entryX=1;entryY=0.5;entryDx=0;entryDy=0;" edge="1" parent="1" source="2WxxFKMK4tvinjYQZOvK-19" target="2WxxFKMK4tvinjYQZOvK-9">
          <mxGeometry width="160" relative="1" as="geometry">
            <mxPoint x="372" y="200" as="sourcePoint" />
            <mxPoint x="532" y="200" as="targetPoint" />
          </mxGeometry>
        </mxCell>
        <mxCell id="2WxxFKMK4tvinjYQZOvK-23" value="Cinema" style="swimlane;fontStyle=1;align=center;verticalAlign=top;childLayout=stackLayout;horizontal=1;startSize=26;horizontalStack=0;resizeParent=1;resizeParentMax=0;resizeLast=0;collapsible=1;marginBottom=0;whiteSpace=wrap;html=1;" vertex="1" parent="1">
          <mxGeometry x="-399" y="423.5" width="201" height="144" as="geometry" />
        </mxCell>
        <mxCell id="2WxxFKMK4tvinjYQZOvK-24" value="&lt;div&gt;- MovieList: List&amp;lt;Movie&amp;gt;&lt;br&gt;&lt;/div&gt;&lt;div&gt;&lt;br&gt;&lt;/div&gt;&lt;div&gt;- OpeningTime: Time&lt;/div&gt;&lt;div&gt;&lt;br&gt;&lt;/div&gt;&lt;div&gt;- ClosingTime: Time&lt;br&gt;&lt;/div&gt;" style="text;strokeColor=none;fillColor=none;align=left;verticalAlign=top;spacingLeft=4;spacingRight=4;overflow=hidden;rotatable=0;points=[[0,0.5],[1,0.5]];portConstraint=eastwest;whiteSpace=wrap;html=1;" vertex="1" parent="2WxxFKMK4tvinjYQZOvK-23">
          <mxGeometry y="26" width="201" height="85" as="geometry" />
        </mxCell>
        <mxCell id="2WxxFKMK4tvinjYQZOvK-25" value="" style="line;strokeWidth=1;fillColor=none;align=left;verticalAlign=middle;spacingTop=-1;spacingLeft=3;spacingRight=3;rotatable=0;labelPosition=right;points=[];portConstraint=eastwest;strokeColor=inherit;" vertex="1" parent="2WxxFKMK4tvinjYQZOvK-23">
          <mxGeometry y="111" width="201" height="8" as="geometry" />
        </mxCell>
        <mxCell id="2WxxFKMK4tvinjYQZOvK-26" value="&lt;div&gt;+ addMovie(Movie: String) &lt;br&gt;&lt;/div&gt;" style="text;strokeColor=none;fillColor=none;align=left;verticalAlign=top;spacingLeft=4;spacingRight=4;overflow=hidden;rotatable=0;points=[[0,0.5],[1,0.5]];portConstraint=eastwest;whiteSpace=wrap;html=1;" vertex="1" parent="2WxxFKMK4tvinjYQZOvK-23">
          <mxGeometry y="119" width="201" height="25" as="geometry" />
        </mxCell>
        <mxCell id="2WxxFKMK4tvinjYQZOvK-29" value="Movie" style="swimlane;fontStyle=1;align=center;verticalAlign=top;childLayout=stackLayout;horizontal=1;startSize=26;horizontalStack=0;resizeParent=1;resizeParentMax=0;resizeLast=0;collapsible=1;marginBottom=0;whiteSpace=wrap;html=1;" vertex="1" parent="1">
          <mxGeometry x="-80" y="381" width="308" height="237" as="geometry" />
        </mxCell>
        <mxCell id="2WxxFKMK4tvinjYQZOvK-30" value="&lt;div&gt;- Title: String&lt;/div&gt;&lt;div&gt;&lt;br&gt;&lt;/div&gt;&lt;div&gt;- Duration: Time&lt;/div&gt;&lt;div&gt;&lt;br&gt;&lt;/div&gt;&lt;div&gt;- StartHour: Time&lt;/div&gt;&lt;div&gt;&lt;br&gt;&lt;/div&gt;&lt;div&gt;- Room: int&lt;/div&gt;&lt;div&gt;&lt;br&gt;&lt;/div&gt;&lt;div&gt;- TicketCount: int&lt;/div&gt;&lt;div&gt;&lt;br&gt;&lt;/div&gt;&lt;div&gt;- payment_method: PaymentMethod&lt;br&gt;&lt;/div&gt;" style="text;strokeColor=none;fillColor=none;align=left;verticalAlign=top;spacingLeft=4;spacingRight=4;overflow=hidden;rotatable=0;points=[[0,0.5],[1,0.5]];portConstraint=eastwest;whiteSpace=wrap;html=1;" vertex="1" parent="2WxxFKMK4tvinjYQZOvK-29">
          <mxGeometry y="26" width="308" height="177" as="geometry" />
        </mxCell>
        <mxCell id="2WxxFKMK4tvinjYQZOvK-31" value="" style="line;strokeWidth=1;fillColor=none;align=left;verticalAlign=middle;spacingTop=-1;spacingLeft=3;spacingRight=3;rotatable=0;labelPosition=right;points=[];portConstraint=eastwest;strokeColor=inherit;" vertex="1" parent="2WxxFKMK4tvinjYQZOvK-29">
          <mxGeometry y="203" width="308" height="8" as="geometry" />
        </mxCell>
        <mxCell id="2WxxFKMK4tvinjYQZOvK-32" value="+ buyTicket(ticket: Ticket, numberOfTickets: Int) : Ticket" style="text;strokeColor=none;fillColor=none;align=left;verticalAlign=top;spacingLeft=4;spacingRight=4;overflow=hidden;rotatable=0;points=[[0,0.5],[1,0.5]];portConstraint=eastwest;whiteSpace=wrap;html=1;" vertex="1" parent="2WxxFKMK4tvinjYQZOvK-29">
          <mxGeometry y="211" width="308" height="26" as="geometry" />
        </mxCell>
        <mxCell id="2WxxFKMK4tvinjYQZOvK-33" value="Ticket" style="swimlane;fontStyle=1;align=center;verticalAlign=top;childLayout=stackLayout;horizontal=1;startSize=26;horizontalStack=0;resizeParent=1;resizeParentMax=0;resizeLast=0;collapsible=1;marginBottom=0;whiteSpace=wrap;html=1;" vertex="1" parent="1">
          <mxGeometry x="338" y="440" width="160" height="93" as="geometry" />
        </mxCell>
        <mxCell id="2WxxFKMK4tvinjYQZOvK-34" value="&lt;div&gt;- Price: double&lt;/div&gt;&lt;div&gt;&lt;br&gt;&lt;/div&gt;&lt;div&gt;- Room: int&lt;br&gt;&lt;/div&gt;" style="text;strokeColor=none;fillColor=none;align=left;verticalAlign=top;spacingLeft=4;spacingRight=4;overflow=hidden;rotatable=0;points=[[0,0.5],[1,0.5]];portConstraint=eastwest;whiteSpace=wrap;html=1;" vertex="1" parent="2WxxFKMK4tvinjYQZOvK-33">
          <mxGeometry y="26" width="160" height="59" as="geometry" />
        </mxCell>
        <mxCell id="2WxxFKMK4tvinjYQZOvK-35" value="" style="line;strokeWidth=1;fillColor=none;align=left;verticalAlign=middle;spacingTop=-1;spacingLeft=3;spacingRight=3;rotatable=0;labelPosition=right;points=[];portConstraint=eastwest;strokeColor=inherit;" vertex="1" parent="2WxxFKMK4tvinjYQZOvK-33">
          <mxGeometry y="85" width="160" height="8" as="geometry" />
        </mxCell>
        <mxCell id="2WxxFKMK4tvinjYQZOvK-37" value="Time" style="swimlane;fontStyle=1;align=center;verticalAlign=top;childLayout=stackLayout;horizontal=1;startSize=26;horizontalStack=0;resizeParent=1;resizeParentMax=0;resizeLast=0;collapsible=1;marginBottom=0;whiteSpace=wrap;html=1;" vertex="1" parent="1">
          <mxGeometry x="-240" y="208" width="160" height="114" as="geometry" />
        </mxCell>
        <mxCell id="2WxxFKMK4tvinjYQZOvK-38" value="&lt;div&gt;- Hour: int&lt;/div&gt;&lt;div&gt;&lt;br&gt;&lt;/div&gt;&lt;div&gt;- Minutes: int&lt;/div&gt;&lt;div&gt;&lt;br&gt;&lt;/div&gt;&lt;div&gt;- Seconds: int&lt;br&gt;&lt;/div&gt;" style="text;strokeColor=none;fillColor=none;align=left;verticalAlign=top;spacingLeft=4;spacingRight=4;overflow=hidden;rotatable=0;points=[[0,0.5],[1,0.5]];portConstraint=eastwest;whiteSpace=wrap;html=1;" vertex="1" parent="2WxxFKMK4tvinjYQZOvK-37">
          <mxGeometry y="26" width="160" height="80" as="geometry" />
        </mxCell>
        <mxCell id="2WxxFKMK4tvinjYQZOvK-39" value="" style="line;strokeWidth=1;fillColor=none;align=left;verticalAlign=middle;spacingTop=-1;spacingLeft=3;spacingRight=3;rotatable=0;labelPosition=right;points=[];portConstraint=eastwest;strokeColor=inherit;" vertex="1" parent="2WxxFKMK4tvinjYQZOvK-37">
          <mxGeometry y="106" width="160" height="8" as="geometry" />
        </mxCell>
        <mxCell id="2WxxFKMK4tvinjYQZOvK-41" value="Date" style="swimlane;fontStyle=1;align=center;verticalAlign=top;childLayout=stackLayout;horizontal=1;startSize=26;horizontalStack=0;resizeParent=1;resizeParentMax=0;resizeLast=0;collapsible=1;marginBottom=0;whiteSpace=wrap;html=1;" vertex="1" parent="1">
          <mxGeometry x="801" y="118.5" width="160" height="117" as="geometry" />
        </mxCell>
        <mxCell id="2WxxFKMK4tvinjYQZOvK-42" value="&lt;div&gt;- Year: Int&lt;/div&gt;&lt;div&gt;&lt;br&gt;&lt;/div&gt;&lt;div&gt;- Month: Int&lt;/div&gt;&lt;div&gt;&lt;br&gt;&lt;/div&gt;&lt;div&gt;- Day: Int&lt;/div&gt;" style="text;strokeColor=none;fillColor=none;align=left;verticalAlign=top;spacingLeft=4;spacingRight=4;overflow=hidden;rotatable=0;points=[[0,0.5],[1,0.5]];portConstraint=eastwest;whiteSpace=wrap;html=1;" vertex="1" parent="2WxxFKMK4tvinjYQZOvK-41">
          <mxGeometry y="26" width="160" height="83" as="geometry" />
        </mxCell>
        <mxCell id="2WxxFKMK4tvinjYQZOvK-43" value="" style="line;strokeWidth=1;fillColor=none;align=left;verticalAlign=middle;spacingTop=-1;spacingLeft=3;spacingRight=3;rotatable=0;labelPosition=right;points=[];portConstraint=eastwest;strokeColor=inherit;" vertex="1" parent="2WxxFKMK4tvinjYQZOvK-41">
          <mxGeometry y="109" width="160" height="8" as="geometry" />
        </mxCell>
        <mxCell id="2WxxFKMK4tvinjYQZOvK-45" value="Use" style="endArrow=open;endSize=12;dashed=1;html=1;rounded=0;fontSize=12;curved=1;exitX=0.5;exitY=0;exitDx=0;exitDy=0;" edge="1" parent="1" source="2WxxFKMK4tvinjYQZOvK-29" target="2WxxFKMK4tvinjYQZOvK-3">
          <mxGeometry width="160" relative="1" as="geometry">
            <mxPoint x="232" y="230" as="sourcePoint" />
            <mxPoint x="392" y="230" as="targetPoint" />
          </mxGeometry>
        </mxCell>
        <mxCell id="2WxxFKMK4tvinjYQZOvK-46" value="" style="endArrow=diamondThin;endFill=0;endSize=24;html=1;rounded=0;fontSize=12;curved=1;exitX=0;exitY=0.5;exitDx=0;exitDy=0;entryX=1;entryY=0.5;entryDx=0;entryDy=0;" edge="1" parent="1" source="2WxxFKMK4tvinjYQZOvK-34" target="2WxxFKMK4tvinjYQZOvK-30">
          <mxGeometry width="160" relative="1" as="geometry">
            <mxPoint x="232" y="230" as="sourcePoint" />
            <mxPoint x="392" y="230" as="targetPoint" />
          </mxGeometry>
        </mxCell>
        <mxCell id="2WxxFKMK4tvinjYQZOvK-47" value="" style="endArrow=diamondThin;endFill=1;endSize=24;html=1;rounded=0;fontSize=12;curved=1;exitX=0;exitY=0.5;exitDx=0;exitDy=0;entryX=1;entryY=0.5;entryDx=0;entryDy=0;" edge="1" parent="1" source="2WxxFKMK4tvinjYQZOvK-30" target="2WxxFKMK4tvinjYQZOvK-23">
          <mxGeometry width="160" relative="1" as="geometry">
            <mxPoint x="232" y="230" as="sourcePoint" />
            <mxPoint x="392" y="230" as="targetPoint" />
          </mxGeometry>
        </mxCell>
        <mxCell id="2WxxFKMK4tvinjYQZOvK-48" value="" style="endArrow=diamondThin;endFill=0;endSize=24;html=1;rounded=0;fontSize=12;curved=1;exitX=0;exitY=0.5;exitDx=0;exitDy=0;entryX=1;entryY=0.5;entryDx=0;entryDy=0;" edge="1" parent="1" source="2WxxFKMK4tvinjYQZOvK-42" target="2WxxFKMK4tvinjYQZOvK-19">
          <mxGeometry width="160" relative="1" as="geometry">
            <mxPoint x="232" y="230" as="sourcePoint" />
            <mxPoint x="392" y="230" as="targetPoint" />
          </mxGeometry>
        </mxCell>
        <mxCell id="2WxxFKMK4tvinjYQZOvK-49" value="" style="endArrow=diamondThin;endFill=0;endSize=24;html=1;rounded=0;fontSize=12;curved=1;exitX=0.213;exitY=1;exitDx=0;exitDy=0;exitPerimeter=0;entryX=0.75;entryY=0;entryDx=0;entryDy=0;" edge="1" parent="1" source="2WxxFKMK4tvinjYQZOvK-39" target="2WxxFKMK4tvinjYQZOvK-23">
          <mxGeometry width="160" relative="1" as="geometry">
            <mxPoint x="232" y="230" as="sourcePoint" />
            <mxPoint x="392" y="230" as="targetPoint" />
          </mxGeometry>
        </mxCell>
        <mxCell id="2WxxFKMK4tvinjYQZOvK-50" value="" style="endArrow=diamondThin;endFill=0;endSize=24;html=1;rounded=0;fontSize=12;curved=1;exitX=0.75;exitY=1;exitDx=0;exitDy=0;entryX=0.25;entryY=0;entryDx=0;entryDy=0;" edge="1" parent="1" source="2WxxFKMK4tvinjYQZOvK-37" target="2WxxFKMK4tvinjYQZOvK-29">
          <mxGeometry width="160" relative="1" as="geometry">
            <mxPoint x="232" y="230" as="sourcePoint" />
            <mxPoint x="392" y="230" as="targetPoint" />
          </mxGeometry>
        </mxCell>
      </root>
    </mxGraphModel>
  </diagram>
</mxfile>
